<?xml version="1.0" encoding="UTF-8"?>
<svg xmlns="http://www.w3.org/2000/svg" width="566.66" height="135.39" viewBox="0 0 566.66 135.39">
  <title>logo</title>
  <path d="M167.66,54.12c-2.78-2.79-7.21-4.58-30.39,4.07A235.32,235.32,0,0,0,108.9,70.88c-1.24-3.14-2.33-5.73-3-7.34C93.18,34,88,34,85,34s-8.21,0-20.91,29.57c-.69,1.61-1.78,4.2-3,7.34A236,236,0,0,0,32.66,58.19C9.47,49.54,5.05,51.33,2.27,54.12c-2.17,2.17-5.81,5.8,6.12,35.7C11,96.29,20,118,27.84,125.84A32.85,32.85,0,0,0,68,130.59a32.59,32.59,0,0,0,34.05,0,32.85,32.85,0,0,0,40.1-4.75C150,118,159,96.29,161.54,89.82,173.47,59.92,169.83,56.29,167.66,54.12Zm-131,63C29.13,109.6,16,77.77,13,64.87,22.7,67.21,43.6,75.24,56.73,82.66c-2.4,7.25-4.4,14.87-4.4,20.11a32.47,32.47,0,0,0,6,18.8,20.38,20.38,0,0,1-21.72-4.49Zm28.12-14.31C64.73,92.18,78,60.37,85,49.12c7,11.25,20.24,43.06,20.24,53.65a20.24,20.24,0,0,1-40.47,0Zm68.59,14.31a20.36,20.36,0,0,1-21.71,4.49,32.47,32.47,0,0,0,6-18.8c0-5.24-2-12.86-4.4-20.11,13.13-7.42,34-15.45,43.75-17.79-3.12,12.86-16.21,44.69-23.69,52.17Z" transform="translate(0)" fill="#fba391"></path>
  <circle cx="84.97" cy="9.89" r="9.89" fill="#0c142e"></circle>
  <circle cx="129.25" cy="38.51" r="9.89" fill="#0c142e"></circle>
  <circle cx="40.69" cy="38.51" r="9.89" fill="#0c142e"></circle>
  <path d="M218,45.53a7.21,7.21,0,0,0,2,5.25,16.39,16.39,0,0,0,5.25,3.45c2.17.93,4.57,1.82,7.2,2.65s5.23,1.75,7.8,2.75a33,33,0,0,1,7.1,3.8,16.81,16.81,0,0,1,7.25,14.7q0,7.29-3.75,12a22.39,22.39,0,0,1-10,7,39.75,39.75,0,0,1-13.75,2.3,56,56,0,0,1-10.65-1,57.37,57.37,0,0,1-10.65-3.15l.5-18.2h7.2l1.9,12.4-1.2-2.2a31.07,31.07,0,0,0,6.7,2.25,32.34,32.34,0,0,0,6.8.75,23,23,0,0,0,7.45-1.15,11.94,11.94,0,0,0,5.35-3.5,8.71,8.71,0,0,0,2-5.85,7.9,7.9,0,0,0-1.95-5.55,15.14,15.14,0,0,0-5.2-3.6,55,55,0,0,0-7.15-2.6c-2.6-.77-5.2-1.63-7.8-2.6a32.12,32.12,0,0,1-7.15-3.7A17.21,17.21,0,0,1,208,56a17.8,17.8,0,0,1-2-8.85,18.36,18.36,0,0,1,3.3-11.25,20,20,0,0,1,9-6.7A34.76,34.76,0,0,1,231.13,27a55.58,55.58,0,0,1,10.53,1,56.94,56.94,0,0,1,10.85,3.25l-1,16.9h-7.4l-1.9-11.3,1.5,1.5a31.12,31.12,0,0,0-5.75-1.7,31.81,31.81,0,0,0-6.15-.6,23.77,23.77,0,0,0-6.8,1,10.92,10.92,0,0,0-5.1,3A7.89,7.89,0,0,0,218,45.53Z" transform="translate(0)" fill="#0a132e"></path>
  <path d="M259.41,121.23V115l8.7-2.6-1.6,2.1V52.13l1.5,1.7-8.6-2.3v-6.2l16.4-.8,1.4,8.7-1.3-.7a39,39,0,0,1,9.1-6.4,20.7,20.7,0,0,1,9.2-2.2A17.41,17.41,0,0,1,304.41,47a20.23,20.23,0,0,1,6.95,9,36.63,36.63,0,0,1,2.55,14.45q0,9.6-3.25,16a22.21,22.21,0,0,1-9.1,9.65,27.64,27.64,0,0,1-13.65,3.25,37.59,37.59,0,0,1-5.3-.4c-1.8-.27-3.7-.61-5.7-1l1.6-1.5v18.1l-1.4-1.9,9.7,2.4v6.2Zm27-30.5q7.6,0,11.3-5.1t3.7-14a30.83,30.83,0,0,0-1.45-10,14.87,14.87,0,0,0-4-6.5,9.11,9.11,0,0,0-6.3-2.3,13.58,13.58,0,0,0-6.05,1.55A27.32,27.32,0,0,0,277,59.13l1.5-3.3v35.8l-1.5-2.4A34.27,34.27,0,0,0,286.41,90.73Z" transform="translate(0)" fill="#0a132e"></path>
  <path d="M364.71,91.93l-1.8-2.4,8.9,2.4v6.2l-16.4.8-1.6-9.6.8.3a27.86,27.86,0,0,1-8.95,7.3,21.62,21.62,0,0,1-9.65,2.4,14.49,14.49,0,0,1-10.3-4q-4.2-4-4.2-11.55c0-3.87.84-6.9,2.5-9.1A13.86,13.86,0,0,1,331.06,70a36.85,36.85,0,0,1,11.05-1.45h11.5l-.9,1.1V62q0-4.91-2.5-7.05c-1.66-1.44-4-2.15-7.1-2.15a28.14,28.14,0,0,0-4.85.45,39.38,39.38,0,0,0-5.55,1.45l1.4-1.5-1.2,8.5h-7.7l-.8-14a110.14,110.14,0,0,1,11.9-2.85,56.88,56.88,0,0,1,10-1q8.81,0,13.6,3.85t4.8,12.05Zm-31.1-9.2c0,2.66.64,4.63,1.9,5.9a6.64,6.64,0,0,0,4.9,1.9,13.54,13.54,0,0,0,6.3-1.8,30.79,30.79,0,0,0,6.6-4.8l-.6,2.4V74.43l.9,1H344c-3.93,0-6.64.6-8.15,1.8A6.6,6.6,0,0,0,333.61,82.73Z" transform="translate(0)" fill="#0a132e"></path>
  <path d="M402.61,45.43l22-.8v6.2l-6,2.3,1.7-1.9-16.8,47.2h-14.1l-14.9-46.8,1.8,1.5-6.3-1.5v-6.2l23.6-.8v6.2l-7.9,2,1-1.6,11.2,39.6h-1l12.4-38.9.7,1-7.4-1.3Z" transform="translate(0)" fill="#0a132e"></path>
  <path d="M446.11,91l-1-1.1,8,2.1v6.2H427V92l8-2.1-.9,1.1V52.63l.8.9-7.9-2v-6.2l19.1-.7Zm-6.5-55.2a7.39,7.39,0,0,1-5.3-1.9,7,7,0,0,1-2-5.3,7,7,0,0,1,2.1-5.55,7.71,7.71,0,0,1,5.3-1.85,7.52,7.52,0,0,1,5.15,1.8c1.37,1.2,2.06,3,2.05,5.5a6.91,6.91,0,0,1-2.1,5.45,7.58,7.58,0,0,1-5.2,1.89Z" transform="translate(0)" fill="#0a132e"></path>
  <path d="M476.41,91l-1-1.1,8.1,2.1v6.2h-26.1V92l8-2.1-1,1.1V28.63l.9,1-7.9-2v-6.2l19-.8Z" transform="translate(0)" fill="#0a132e"></path>
  <path d="M506.81,91l-1-1.1,8.1,2.1v6.2h-26.1V92l8-2.1-1,1.1V28.63l.9,1-7.9-2v-6.2l19-.8Z" transform="translate(0)" fill="#0a132e"></path>
  <path d="M543.21,99.33a24.84,24.84,0,0,1-12.4-3,20.76,20.76,0,0,1-8.4-9,32.53,32.53,0,0,1-3-14.7,34.36,34.36,0,0,1,3.15-15.3,23,23,0,0,1,8.9-9.85A26,26,0,0,1,545.11,44q7.5,0,12.25,3.05a18.4,18.4,0,0,1,7,8.35,29.92,29.92,0,0,1,2.3,12c0,1,0,2-.1,3s-.2,2.1-.4,3.3H529V66h26.7l-1.4.9a23.64,23.64,0,0,0-.85-7.2,10.19,10.19,0,0,0-3.25-5.1,9.25,9.25,0,0,0-6.1-1.9,10.33,10.33,0,0,0-7,2.4,13.55,13.55,0,0,0-4,6.5,31.48,31.48,0,0,0-1.25,9.3,30.87,30.87,0,0,0,1.5,10,14.34,14.34,0,0,0,4.7,6.85,12.8,12.8,0,0,0,8.1,2.5,25.52,25.52,0,0,0,7.6-1.3,39.28,39.28,0,0,0,8.5-4l4.1,6.5a46.31,46.31,0,0,1-11.6,5.85A36.8,36.8,0,0,1,543.21,99.33Z" transform="translate(0)" fill="#0a132e"></path>
</svg>
